<svg width="104" height="104" viewBox="0 0 104 104" fill="none" xmlns="http://www.w3.org/2000/svg">
<circle cx="51.9236" cy="51.9236" r="49.9236" stroke="#1698E1" stroke-width="3"/>
<path d="M53.7306 65.1909C48.7734 71.6661 43.9688 76.6968 43.9688 76.6968C43.9688 76.6968 23.4688 55.232 23.4688 43.9102C23.4688 32.5883 32.6469 23.4102 43.9688 23.4102C52.0904 23.4102 59.109 28.1331 62.4278 34.9823M54.3414 36.3283C51.9884 33.1619 48.2195 31.1104 43.9714 31.1104C36.8407 31.1104 31.0601 36.891 31.0601 44.0217C31.0601 51.1525 36.8407 56.9331 43.9714 56.9331C45.372 56.9331 46.7205 56.7101 47.9834 56.2976" stroke="#4A6473" stroke-width="3" stroke-linecap="round" stroke-linejoin="round"/>
<path d="M65.9912 65.0989C67.3714 65.85 68.9536 66.2768 70.6355 66.2768C76.0088 66.2768 80.3647 61.9209 80.3647 56.5476C80.3647 52.0903 77.3675 48.3332 73.2786 47.1816C73.4737 46.4133 73.5773 45.6085 73.5773 44.7795C73.5773 39.4062 69.2214 35.0503 63.8481 35.0503C58.4748 35.0503 54.1188 39.4062 54.1188 44.7795C54.1188 46.298 54.4667 47.7352 55.0871 49.0159C52.259 50.7177 50.3672 53.817 50.3672 57.3581C50.3672 62.7314 54.7231 67.0873 60.0964 67.0873C62.3125 67.0873 64.3555 66.3465 65.9912 65.0989ZM65.9912 65.0989V80.4368" stroke="#1698E1" stroke-width="3" stroke-linecap="round" stroke-linejoin="round"/>
</svg>
