<svg width="104" height="104" viewBox="0 0 104 104" fill="none" xmlns="http://www.w3.org/2000/svg">
<circle cx="51.9236" cy="51.9236" r="49.9236" stroke="#1698E1" stroke-width="3"/>
<path d="M19.0547 78.3574C21.5291 76.5518 27.4968 73.5665 36.2413 71.7137M68.8331 71.9242C76.9624 73.777 81.1145 76.5518 82.9894 78.3574M18.8047 80.6099V49.3911C18.8047 46.2458 21.068 35.6514 23.5547 35.6514C26.0414 35.6514 28.3047 46.2458 28.3047 49.3911V73.4711M31.8516 72.5727V49.3911C31.8516 46.2458 34.1148 35.6514 36.6016 35.6514C39.0883 35.6514 41.3516 46.2458 41.3516 49.3911V62.2382M70.1953 71.5727V49.3911C70.1953 46.2458 67.932 35.6514 65.4453 35.6514C62.9586 35.6514 60.6953 46.2458 60.6953 49.3911V61.1824M73.4922 72.5727V49.3911C73.4922 46.2458 75.7555 35.6514 78.2422 35.6514C80.7289 35.6514 82.9922 46.2458 82.9922 49.3911V80.5727M46.2734 61.1824V49.3911C46.2734 46.2458 48.5367 35.6514 51.0234 35.6514C53.5102 35.6514 55.7734 46.2458 55.7734 49.3911V61.1824M68.6719 65.2388V76.8702M37.9531 76.8702V65.2388M37.4774 71.5269C34.4555 73.2977 32.6328 75.5904 32.6328 78.0948C32.6328 83.7046 41.7786 88.2523 53.0606 88.2523C64.3425 88.2523 73.4883 83.7046 73.4883 78.0948C73.4883 75.8173 71.9809 73.7149 69.435 72.0207M68.6719 76.7192C68.6719 79.9868 61.762 82.6357 53.2383 82.6357C44.7145 82.6357 37.8047 79.9868 37.8047 76.7192M68.1797 64.688C68.1797 66.8335 61.4132 68.5728 53.0664 68.5728C44.7196 68.5728 37.9531 66.8335 37.9531 64.688C37.9531 62.5425 44.7196 60.8032 53.0664 60.8032C61.4132 60.8032 68.1797 62.5425 68.1797 64.688Z" stroke="#1698E1" stroke-width="3" stroke-linecap="round" stroke-linejoin="round"/>
<path d="M19.0547 18.3066C22.842 21.0703 34.813 26.5977 52.3984 26.5977C69.9839 26.5977 80.1197 21.0703 82.9894 18.3066M19.0547 22.4521C22.842 25.2158 34.813 30.7432 52.3984 30.7432C69.9839 30.7432 80.1197 25.2158 82.9894 22.4521" stroke="#4A6473" stroke-width="3" stroke-linecap="round" stroke-linejoin="round"/>
</svg>
