<svg width="71" height="72" viewBox="0 0 71 72" fill="none" xmlns="http://www.w3.org/2000/svg">
<path d="M35.6628 36.8075H69.3281C69.3371 41.2261 68.4721 45.6028 66.7828 49.6857C65.0935 53.7687 62.6133 57.4771 59.485 60.5976L35.6628 36.8075ZM35.6628 36.8075V3.07812C30.1257 3.07853 24.6743 4.44467 19.7914 7.05551C14.9085 9.66636 10.745 13.4413 7.6697 18.0458C4.59444 22.6504 2.70239 27.9424 2.1612 33.4529C1.62001 38.9635 2.44638 44.5225 4.5671 49.6373C6.68782 54.7521 10.0374 59.2649 14.3191 62.7758C18.6007 66.2867 23.6823 68.6873 29.1135 69.7649C34.5447 70.8425 40.1578 70.5638 45.4556 68.9536C50.7533 67.3433 55.5721 64.4512 59.485 60.5335" stroke="#1698E1" stroke-width="3"/>
<path d="M47.9141 24.4964H58.6228C59.8388 24.4964 61.005 24.0134 61.8648 23.1536C62.7247 22.2937 63.2077 21.1275 63.2077 19.9116C63.2077 18.6956 62.7247 17.5294 61.8648 16.6696C61.005 15.8097 59.8388 15.3267 58.6228 15.3267H55.4166C54.1977 15.3182 53.0316 14.828 52.1726 13.9631C51.3137 13.0982 50.8317 11.9287 50.8317 10.7097C50.8315 10.0967 50.9542 9.48982 51.1926 8.92503C51.431 8.36024 51.7802 7.84899 52.2196 7.42152C52.659 6.99406 53.1797 6.65906 53.7509 6.43633C54.322 6.21361 54.9321 6.10769 55.5449 6.12484H66.2857" stroke="#4A6473" stroke-width="3"/>
<path d="M57.0859 0V6.12387" stroke="#4A6473" stroke-width="3"/>
<path d="M57.0859 24.4961V30.62" stroke="#4A6473" stroke-width="3"/>
</svg>
