<svg width="80" height="80" viewBox="0 0 80 80" fill="none" xmlns="http://www.w3.org/2000/svg">
<path d="M18.4925 13H40.4626C41.9193 13 43.3164 13.5787 44.3464 14.6087C45.3765 15.6388 45.9552 17.0358 45.9552 18.4925V67.9253H18.4925C17.0358 67.9253 15.6388 67.3466 14.6087 66.3165C13.5787 65.2865 13 63.8894 13 62.4327V18.4925C13 17.0358 13.5787 15.6388 14.6087 14.6087C15.6388 13.5787 17.0358 13 18.4925 13Z" stroke="#1698E1" stroke-width="3"/>
<path d="M45.9453 34.9697H62.4229C63.8796 34.9697 65.2766 35.5484 66.3067 36.5785C67.3367 37.6085 67.9154 39.0055 67.9154 40.4623V62.4324C67.9154 63.8891 67.3367 65.2861 66.3067 66.3162C65.2766 67.3462 63.8796 67.9249 62.4229 67.9249H45.9453" stroke="#1698E1" stroke-width="3"/>
<path d="M21.2422 23.9844H23.9885" stroke="#4A6473" stroke-width="3"/>
<path d="M32.2266 23.9844H37.7191" stroke="#4A6473" stroke-width="3"/>
<path d="M21.2422 34.9697H23.9885" stroke="#4A6473" stroke-width="3"/>
<path d="M32.2266 34.9697H37.7191" stroke="#4A6473" stroke-width="3"/>
<path d="M21.2422 45.9561H23.9885" stroke="#4A6473" stroke-width="3"/>
<path d="M32.2266 45.9561H37.7191" stroke="#4A6473" stroke-width="3"/>
<path d="M21.2422 56.9404H23.9885" stroke="#4A6473" stroke-width="3"/>
<path d="M32.2266 56.9404H37.7191" stroke="#4A6473" stroke-width="3"/>
<path d="M54.1875 45.9561H59.68" stroke="#4A6473" stroke-width="3"/>
<path d="M54.1875 56.9404H59.68" stroke="#4A6473" stroke-width="3"/>
</svg>
