<svg width="80" height="80" viewBox="0 0 80 80" fill="none" xmlns="http://www.w3.org/2000/svg">
<path d="M38.6466 50.6729L28.3377 40.364M38.6466 50.6729C43.4465 48.8472 48.0514 46.5448 52.3918 43.8003M38.6466 50.6729V67.8544C38.6466 67.8544 49.0586 65.9644 52.3918 60.9818C56.103 55.415 52.3918 43.8003 52.3918 43.8003M28.3377 40.364C30.1663 35.6198 32.4689 31.0723 35.2103 26.7905C39.2143 20.3886 44.7894 15.1175 51.4056 11.4786C58.0219 7.83972 65.459 5.95401 73.0096 6.00085C73.0096 15.3476 70.3293 31.7731 52.3918 43.8003M28.3377 40.364H11.1562C11.1562 40.364 13.0462 29.9519 18.0288 26.6186C23.5956 22.9074 35.2103 26.6186 35.2103 26.6186" stroke="#1698E1" stroke-width="3"/>
<path d="M6 73.0089C6 73.0089 7.71815 60.1572 12.8726 55.8274C14.2845 54.6374 16.0861 54.011 17.9316 54.068C19.7771 54.1251 21.5366 54.8618 22.8722 56.1367C25.5869 58.817 25.6213 63.2498 23.1815 66.1363C18.8518 71.2908 6 73.0089 6 73.0089Z" stroke="#4A6473" stroke-width="3"/>
</svg>
