<svg width="317" height="56" viewBox="0 0 317 56" fill="none" xmlns="http://www.w3.org/2000/svg">
<path d="M0 32.027C10.672 21.3522 21.3522 10.6802 32.0215 0C42.6963 10.6748 53.3738 21.3468 64.0431 32.027C60.5962 32.0297 57.1493 32.0243 53.7024 32.0297C46.4664 24.7991 39.2386 17.5631 32.0025 10.3325C26.4913 15.8519 21.0317 21.4228 15.5232 26.9476C22.1182 33.5372 28.7078 40.1295 35.3 46.7217C33.5616 48.4357 31.8097 50.1333 30.055 51.8282C23.4573 45.2278 16.8542 38.6301 10.2565 32.027C6.83673 32.027 3.41701 32.027 0 32.027Z" fill="white"/>
<path d="M26.3438 26.7114C28.1419 24.715 30.1275 22.8788 32.0179 20.9639C39.3436 28.2026 46.6312 35.4766 53.9297 42.7398C53.9351 47.0532 53.9324 51.3665 53.9324 55.6799C48.3669 55.6772 42.8014 55.6908 37.2358 55.6745C40.2563 52.6513 43.2794 49.6309 46.2998 46.6077C39.6532 39.972 32.9659 33.3716 26.3438 26.7114Z" fill="white"/>
<path d="M10.1435 42.6416C14.5166 46.9658 18.849 51.3281 23.195 55.6768C18.8409 55.6822 14.4868 55.6822 10.1354 55.6768C10.1408 51.3308 10.1218 46.9876 10.1435 42.6416Z" fill="white"/>
<path d="M81.3592 13.624C82.6371 11.9529 84.6863 10.8464 86.8035 10.8212C89.1526 10.7683 91.5698 11.343 93.4904 12.7368C92.8905 14.1231 92.2705 15.5043 91.6605 16.8856C90.5339 16.0714 89.2761 15.2825 87.8319 15.3304C86.8615 15.2876 85.5458 15.6833 85.4349 16.8226C85.3113 17.6871 86.0574 18.3248 86.7884 18.6071C88.9434 19.5195 91.5219 19.7413 93.2031 21.5334C95.585 24.7193 94.3903 29.8486 90.9422 31.7818C88.9611 32.9917 86.5111 33.0497 84.2905 32.6237C82.3623 32.2532 80.6433 31.1719 79.2344 29.836C80.0787 28.3287 80.9332 26.829 81.7877 25.3293C82.753 26.4081 83.8822 27.3861 85.2231 27.9607C86.2893 28.3539 87.6176 28.364 88.5275 27.6053C89.4072 26.882 89.4198 25.4125 88.646 24.611C87.3026 23.4944 85.4727 23.4591 83.9276 22.776C82.7253 22.224 81.4449 21.546 80.8047 20.3311C79.6225 18.2467 79.9729 15.522 81.3592 13.624Z" fill="white"/>
<path d="M207.149 11.1818C210.027 10.476 213.163 10.9499 215.724 12.432C218.189 13.9367 219.928 16.4396 220.787 19.1668C221.415 21.6545 221.123 24.3742 219.948 26.6578C218.93 28.7347 217.158 30.3932 215.126 31.4669C211.774 33.2187 207.535 33.1405 204.268 31.2149C201.848 29.8412 199.907 27.5576 199.197 24.8405C198.322 21.9696 198.685 18.7156 200.316 16.18C201.82 13.7048 204.331 11.8548 207.149 11.1818ZM208.419 14.2064C207.262 14.4736 206.156 14.9928 205.281 15.8069C202.42 18.2745 201.831 22.8593 203.862 26.0251C205.571 28.9993 209.546 30.2873 212.717 29.0674C216.422 27.6962 218.426 23.1467 217.198 19.4415C216.165 15.817 212.132 13.2738 208.419 14.2064Z" fill="white"/>
<path d="M99.0312 11.3102C104.047 11.3102 109.063 11.3077 114.079 11.3127C114.104 12.9788 114.084 14.6448 114.089 16.3109C112.529 16.3109 110.971 16.3109 109.411 16.3109C109.408 21.5813 109.416 26.8517 109.406 32.1221C107.503 32.1322 105.597 32.1246 103.694 32.1272C103.694 26.8542 103.694 21.5838 103.694 16.3109C102.139 16.3109 100.586 16.3109 99.0312 16.3109C99.0312 14.6423 99.0312 12.9763 99.0312 11.3102Z" fill="white"/>
<path d="M123.508 11.3101C125.887 11.3076 128.267 11.3127 130.646 11.3076C133.046 18.2491 135.465 25.1831 137.86 32.1271C135.919 32.1246 133.978 32.1296 132.038 32.1246C131.662 30.8895 131.312 29.6494 130.954 28.4093C128.292 28.4093 125.628 28.4093 122.964 28.4093C122.606 29.6494 122.258 30.8895 121.885 32.1246C120.022 32.1271 118.16 32.1246 116.297 32.1271C118.691 25.1856 121.116 18.2542 123.508 11.3101ZM127.032 14.7028C126.225 17.9139 125.227 21.0696 124.31 24.2505C126.157 24.2505 128.002 24.2505 129.847 24.2505C128.854 21.0847 127.778 17.9391 127.032 14.7028Z" fill="white"/>
<path d="M138.141 11.3148C140.326 11.3047 142.509 11.3072 144.694 11.3148C145.679 13.2052 146.645 15.1081 147.673 16.9784C147.875 17.3817 148.008 17.8152 148.142 18.2487C149.054 15.8265 150.458 13.6261 151.6 11.3097C153.785 11.3072 155.973 11.3148 158.159 11.3047C155.777 15.1031 153.276 18.836 150.96 22.6722C150.877 25.8178 150.968 28.9735 150.917 32.1217C149.062 32.1267 147.209 32.1317 145.354 32.1191C145.337 29.1096 145.354 26.1027 145.349 23.0932C145.369 22.7932 145.291 22.521 145.12 22.279C142.801 18.6192 140.439 14.9872 138.141 11.3148Z" fill="white"/>
<path d="M162.267 11.3156C164.608 11.3231 166.955 11.2702 169.296 11.3584C170.768 11.4088 172.271 11.9104 173.309 12.9842C175.265 15.1947 175.336 18.9074 173.251 21.0599C172.422 21.811 171.371 22.3706 170.244 22.4689C168.654 22.6579 167.051 22.6604 165.453 22.6503C165.453 25.8086 165.453 28.9693 165.453 32.1275C164.389 32.1275 163.325 32.13 162.264 32.125C162.257 25.1885 162.254 18.252 162.267 11.3156ZM165.707 14.126C165.7 16.0642 165.707 18.005 165.705 19.9433C166.801 19.961 167.915 20.034 168.989 19.7518C169.616 19.5829 170.365 19.4216 170.693 18.7889C171.383 17.5866 171.401 15.7265 170.163 14.8645C168.82 14.0957 167.207 14.1461 165.707 14.126Z" fill="white"/>
<path d="M180.756 11.3152C183.309 11.3429 185.877 11.1942 188.418 11.5143C190.16 11.731 191.755 13.0089 192.216 14.7229C192.726 16.51 192.799 18.5768 191.788 20.2101C190.961 21.6064 189.348 22.287 187.813 22.5542C190.157 25.7098 192.521 28.8479 194.866 32.0036C193.6 32.0111 192.335 32.0061 191.072 32.0086C188.673 28.9008 186.397 25.6998 183.949 22.6323C183.881 25.7552 183.942 28.8807 183.916 32.0036C182.858 32.0086 181.799 32.0111 180.741 31.9985C180.746 25.1049 180.715 18.2088 180.756 11.3152ZM184.037 14.3751C184.037 16.3108 184.037 18.2491 184.037 20.1849C185.245 20.2454 186.482 20.2302 187.632 19.8143C188.592 19.5774 189.068 18.5087 189.033 17.5912C189.091 16.7318 188.899 15.7866 188.204 15.2169C187.019 14.3297 185.456 14.2969 184.037 14.3751Z" fill="white"/>
<path d="M228.015 11.3224C230.177 11.3048 232.34 11.2972 234.503 11.3325C235.667 11.3829 236.91 11.4787 237.905 12.1492C240.975 14.0673 241.318 19.1008 238.49 21.3818C236.406 22.9849 233.641 22.564 231.183 22.6497C231.181 25.8053 231.193 28.9636 231.178 32.1192C230.122 32.1318 229.066 32.1318 228.01 32.1167C228 25.1853 227.992 18.2539 228.015 11.3224ZM231.304 19.9426C232.857 19.9829 234.543 20.056 235.927 19.2419C237.048 18.1379 237.139 15.9829 235.902 14.9268C234.533 14.09 232.854 14.1454 231.309 14.1253C231.302 16.0635 231.307 18.0043 231.304 19.9426Z" fill="white"/>
<path d="M246.361 11.3105C250.228 11.3105 254.094 11.3105 257.961 11.3105C257.961 12.291 257.961 13.2715 257.961 14.252C255.233 14.252 252.506 14.252 249.782 14.252C249.782 15.9458 249.782 17.6421 249.782 19.3359C252.506 19.3359 255.233 19.3359 257.961 19.3359C257.961 20.3592 257.961 21.3851 257.961 22.4109C255.233 22.4109 252.506 22.4109 249.782 22.4109C249.782 24.6214 249.782 26.8294 249.782 29.0399C252.506 29.0399 255.233 29.0399 257.961 29.0399C257.961 30.0683 257.961 31.0991 257.961 32.13C254.094 32.0746 250.225 32.0771 246.361 32.0065C246.359 25.1079 246.359 18.2092 246.361 11.3105Z" fill="white"/>
<path d="M264.838 11.318C267.008 11.318 269.178 11.2752 271.348 11.3558C272.762 11.4087 274.242 11.8322 275.245 12.8833C276.326 13.9822 276.631 15.5928 276.664 17.0774C276.742 18.7813 276.044 20.6339 274.554 21.5664C273.763 22.1109 272.828 22.3755 271.898 22.5545C274.259 25.6976 276.606 28.8533 278.96 32.0014C277.755 31.9989 276.55 32.0291 275.348 32.0014C274.97 32.0518 274.804 31.6586 274.602 31.4292C272.422 28.4928 270.284 25.5237 268.054 22.6276C268.018 25.753 268.046 28.881 268.039 32.0064C266.967 32.0064 265.899 32.0115 264.832 31.9989C264.832 25.1053 264.82 18.2116 264.838 11.318ZM268.165 14.2519C268.165 16.1902 268.165 18.1285 268.165 20.0667C269.42 20.1272 270.715 20.1045 271.9 19.6307C272.724 19.3484 273.115 18.4007 273.128 17.5865C273.198 16.6892 273.022 15.6886 272.288 15.0912C271.111 14.2217 269.569 14.1712 268.165 14.2519Z" fill="white"/>
<path d="M281.754 14.1281C281.749 13.1502 281.749 12.1722 281.754 11.1942C286.57 11.1917 291.39 11.1791 296.209 11.2018C296.211 12.1747 296.211 13.1476 296.206 14.1206C294.369 14.1458 292.529 14.1256 290.692 14.1332C290.692 20.0866 290.694 26.0401 290.689 31.9936C289.55 32.0162 288.41 32.0112 287.274 31.9986C287.269 26.0426 287.271 20.0891 287.271 14.1332C285.431 14.1306 283.591 14.1382 281.754 14.1281Z" fill="white"/>
<path d="M299.125 11.1945C300.307 11.1869 301.489 11.192 302.676 11.1895C304.083 13.4781 305.472 15.7768 306.878 18.068C307.239 18.6527 307.498 19.2904 307.786 19.9155C308.206 18.5544 309.119 17.4479 309.865 16.2607C310.929 14.6073 312.005 12.9614 313.074 11.3104C314.215 11.3104 315.36 11.313 316.504 11.3054C314.22 14.998 311.886 18.6628 309.588 22.3478C309.366 22.6402 309.409 23.0183 309.401 23.3636C309.409 26.2848 309.409 29.2061 309.401 32.1274C308.302 32.0846 307.203 32.0669 306.104 32.0064C306.102 29.0297 306.104 26.0555 306.107 23.0787C306.127 22.7234 306.056 22.3806 305.85 22.0932C303.604 18.4637 301.361 14.8316 299.125 11.1945Z" fill="white"/>
<path d="M79.3672 49.8792C79.3672 45.9018 79.3672 41.9244 79.3672 37.9445C80.9854 38.0352 82.78 37.6194 84.2293 38.5368C85.2224 39.3988 85.1241 40.8784 84.9955 42.0655C84.8997 43.104 84.1411 43.9232 83.1933 44.2886C83.9772 46.1564 84.7762 48.0165 85.5677 49.8817C85.3081 49.8817 84.7913 49.8817 84.5317 49.8817C83.7731 48.0392 83.0119 46.1992 82.2481 44.3617C81.5903 44.3643 80.9299 44.3643 80.2721 44.3643C80.2721 46.2042 80.2721 48.0442 80.2721 49.8817C80.0452 49.8817 79.594 49.8817 79.3672 49.8792ZM80.2695 38.62C80.2721 40.3138 80.2721 42.0051 80.2695 43.6988C81.0912 43.6862 81.9154 43.7467 82.7346 43.6913C83.2866 43.6308 83.7428 43.2073 83.884 42.678C84.2797 41.4959 84.2469 40.0643 83.5361 39.0082C82.6388 38.2318 81.3408 38.7612 80.2695 38.62Z" fill="white"/>
<path d="M101.566 38.0629C101.866 38.0604 102.166 38.0604 102.466 38.0629C102.489 41.39 102.433 44.7221 102.491 48.0492C102.501 48.9969 103.522 49.3019 104.289 49.4103C104.278 49.5389 104.258 49.7959 104.248 49.9245C103.547 49.8211 102.781 49.7783 102.202 49.3221C101.7 48.8986 101.546 48.2156 101.564 47.588C101.566 44.4121 101.566 41.2363 101.566 38.0629Z" fill="white"/>
<path d="M110.078 37.9497C111.699 37.9396 113.317 37.9446 114.938 37.9446C114.938 38.1135 114.94 38.4487 114.94 38.6176C113.619 38.6176 112.301 38.6176 110.98 38.6176C110.98 40.2711 110.98 41.927 110.98 43.583C112.097 43.5805 113.214 43.5805 114.33 43.583C114.328 43.7469 114.328 44.077 114.328 44.2434C113.211 44.2434 112.097 44.2434 110.98 44.2434C110.98 45.8969 110.98 47.5503 110.98 49.2038C112.299 49.2038 113.619 49.2038 114.94 49.2038C114.94 49.3727 114.938 49.7104 114.938 49.8818C113.317 49.8818 111.699 49.8868 110.078 49.8768C110.078 45.8994 110.078 41.9245 110.078 37.9497Z" fill="white"/>
<path d="M162.487 39.3057C163.349 37.685 165.731 37.5741 167.082 38.6226C167.72 39.1393 167.859 39.9913 167.902 40.7626C167.647 40.7626 167.135 40.7626 166.881 40.7626C166.737 40.1123 166.553 39.404 165.971 39.0058C165.028 38.2194 163.365 38.6554 163.022 39.8577C162.77 41.1482 162.83 42.4765 162.81 43.7847C162.828 45.2768 162.752 46.7866 163.007 48.2636C163.294 49.4785 164.882 49.7028 165.865 49.2491C166.551 48.8963 166.727 48.0872 166.898 47.4066C167.234 47.3663 167.569 47.326 167.907 47.2882C167.881 48.1326 167.639 49.0425 166.878 49.5188C165.419 50.4338 162.929 50.1465 162.372 48.2913C162.019 46.6555 162.056 44.9567 162.031 43.2881C162.069 41.9598 161.998 40.566 162.487 39.3057Z" fill="white"/>
<path d="M252.11 37.9439C252.342 37.9439 252.806 37.9414 253.038 37.9414C253.038 41.9213 253.038 45.9012 253.038 49.8836C252.806 49.8811 252.342 49.8811 252.11 49.8786C252.108 45.9012 252.11 41.9238 252.11 37.9439Z" fill="white"/>
<path d="M219.37 38.3022C219.796 38.3022 220.227 38.3022 220.655 38.3022C220.653 38.6425 220.653 38.9853 220.653 39.3256C220.222 39.3256 219.796 39.3256 219.367 39.3256C219.367 38.9828 219.367 38.6425 219.37 38.3022Z" fill="white"/>
<path d="M313.282 38.895C313.544 38.9001 313.809 38.9076 314.079 38.9177C314.079 39.752 314.076 40.5863 314.079 41.4231C314.709 41.4206 315.339 41.4206 315.974 41.4256C315.977 41.6021 315.982 41.781 315.989 41.9625C315.349 41.965 314.714 41.9625 314.079 41.965C314.111 43.994 314.013 46.0306 314.124 48.0596C314.295 48.9947 315.364 49.1687 316.148 49.272C316.168 49.4383 316.211 49.7736 316.231 49.9399C315.432 49.8996 314.595 49.7912 313.93 49.3148C313.418 48.9015 313.28 48.2033 313.282 47.5782C313.275 45.7483 313.285 43.9159 313.282 42.0885C312.846 42.0835 312.408 42.0784 311.977 42.0759C311.979 41.9146 311.982 41.5945 311.982 41.4332C312.41 41.4231 312.849 41.4206 313.282 41.4181C313.28 40.5762 313.28 39.7344 313.282 38.895Z" fill="white"/>
<path d="M124.109 38.8999C124.333 38.9024 124.784 38.9049 125.009 38.9049C125.011 39.7443 125.011 40.5811 125.011 41.4204C125.687 41.554 126.813 41.0222 127.04 41.9321C126.365 41.9699 125.687 41.9674 125.011 41.9674C125.044 44.0014 124.943 46.0405 125.056 48.0696C125.23 49.0072 126.284 49.1685 127.065 49.2693C127.055 49.4357 127.035 49.7709 127.025 49.9373C126.264 49.8944 125.472 49.7986 124.819 49.3752C124.252 48.9769 124.089 48.2435 124.106 47.5907C124.104 45.7608 124.104 43.9283 124.111 42.0984C123.577 42.0052 122.46 42.3858 122.808 41.4507C123.242 41.4154 123.675 41.4154 124.111 41.4078C124.104 40.571 124.106 39.7367 124.109 38.8999Z" fill="white"/>
<path d="M135.962 38.897C136.193 38.902 136.655 38.9096 136.887 38.9146C136.889 39.7489 136.889 40.5832 136.889 41.42C137.552 41.5662 138.691 41.0192 138.918 41.9216C138.243 41.9695 137.565 41.967 136.889 41.967C136.924 44.001 136.821 46.0426 136.937 48.0742C137.121 48.9942 138.167 49.1757 138.946 49.2664C138.936 49.4327 138.911 49.7655 138.9 49.9343C138.074 49.8915 137.181 49.7856 136.524 49.2336C136.019 48.7346 135.959 47.986 135.959 47.318C135.959 45.5738 135.964 43.8296 135.962 42.0854C135.5 42.0829 135.039 42.0779 134.58 42.0703C134.53 41.1881 135.384 41.4503 135.962 41.4074C135.962 40.5706 135.962 39.7338 135.962 38.897Z" fill="white"/>
<path d="M191.282 41.4178C191.279 40.5785 191.282 39.7392 191.282 38.9023C191.509 38.9023 191.96 38.9023 192.184 38.9023C192.187 39.7417 192.187 40.581 192.187 41.4203C192.822 41.4203 193.46 41.4203 194.1 41.4304C194.1 41.564 194.1 41.8261 194.1 41.9572C193.462 41.9623 192.824 41.9648 192.187 41.9648C192.217 43.9888 192.126 46.0152 192.227 48.0342C192.368 48.9869 193.447 49.1609 194.233 49.2667C194.228 49.428 194.221 49.7507 194.216 49.912C193.041 49.8767 191.471 49.4507 191.32 48.0594C191.226 46.0329 191.31 43.9988 191.282 41.9698C190.843 41.9622 190.405 41.9597 189.969 41.9547C189.971 41.8236 189.971 41.564 189.974 41.4355C190.41 41.4254 190.843 41.4203 191.282 41.4178Z" fill="white"/>
<path d="M214.927 38.9072C215.225 38.9097 215.522 38.9148 215.822 38.9249C215.827 39.7566 215.824 40.5884 215.824 41.4227C216.465 41.4202 217.107 41.4227 217.75 41.4227C217.753 41.5563 217.755 41.8285 217.755 41.9621C217.11 41.9621 216.467 41.9621 215.824 41.9646C215.86 43.9936 215.756 46.0327 215.875 48.0592C216.051 48.9868 217.092 49.1909 217.886 49.259C217.879 49.4279 217.864 49.7681 217.856 49.937C216.724 49.9068 215.151 49.6018 214.967 48.2483C214.859 46.1966 214.955 44.1373 214.922 42.0831C214.478 42.0831 214.035 42.0831 213.594 42.0831C213.594 41.9192 213.594 41.5865 213.594 41.4227C214.035 41.4202 214.476 41.4202 214.922 41.4227C214.922 40.5834 214.92 39.744 214.927 38.9072Z" fill="white"/>
<path d="M282.714 38.9329C282.905 38.9228 283.291 38.9027 283.483 38.8926C283.495 39.7344 283.493 40.5788 283.493 41.4232C284.141 41.4207 284.786 41.4207 285.436 41.4232C285.436 41.5593 285.436 41.829 285.436 41.9651C284.786 41.9626 284.138 41.9626 283.493 41.9651C283.508 43.916 283.465 45.8669 283.508 47.8177C283.503 48.6142 284.269 49.0856 284.982 49.1713C285.416 49.2091 285.676 49.4586 285.759 49.9224C284.594 49.9551 282.943 49.6376 282.757 48.2361C282.648 46.1895 282.744 44.1327 282.711 42.0836C282.27 42.0836 281.829 42.0836 281.391 42.0836C281.393 41.9172 281.393 41.587 281.396 41.4232C281.832 41.4207 282.27 41.4207 282.711 41.4232C282.711 40.5914 282.711 39.7622 282.714 38.9329Z" fill="white"/>
<path d="M88.787 41.4806C89.9162 41.1 91.4134 41.2563 92.0586 42.388C92.4972 43.4264 92.6383 44.5607 92.6509 45.6823C91.2521 45.6823 89.8532 45.6798 88.4543 45.6848C88.5123 46.7636 88.2753 48.0188 88.9937 48.9338C89.5986 49.4807 90.5967 49.453 91.2395 48.9867C91.6654 48.6716 91.7032 48.1045 91.8217 47.6357C92.0133 47.6533 92.3964 47.6886 92.5854 47.7063C92.3989 48.4423 92.1872 49.3295 91.3932 49.6345C90.196 50.3226 88.356 50.0327 87.7586 48.6943C87.373 47.0056 87.3453 45.2513 87.4788 43.5323C87.5318 42.693 87.9552 41.7881 88.787 41.4806ZM88.6559 42.8366C88.419 43.5777 88.4669 44.3691 88.4467 45.1379C89.5457 45.1404 90.6446 45.1404 91.7436 45.1379C91.6982 44.3741 91.7385 43.5877 91.5016 42.8543C91.0655 41.6847 89.1021 41.6621 88.6559 42.8366Z" fill="white"/>
<path d="M117.683 41.6396C118.58 40.9339 119.84 41.0851 120.831 41.4909C121.625 41.8287 121.814 42.7537 121.95 43.5149C121.72 43.5199 121.259 43.5325 121.03 43.5401C120.904 42.9982 120.894 42.2899 120.286 42.0606C119.323 41.5212 117.572 41.9572 117.7 43.2956C117.829 44.634 119.397 44.9138 120.339 45.5338C121.542 46.0783 122.318 47.6233 121.635 48.8458C120.944 50.0506 119.323 50.2018 118.116 49.8212C117.166 49.4936 116.629 48.5131 116.594 47.5477C116.816 47.5452 117.262 47.5376 117.483 47.5351C117.693 48.2636 117.978 49.1936 118.872 49.2919C120.233 49.7305 121.824 48.2308 121.03 46.8823C120.075 45.5616 118.167 45.4456 117.131 44.1853C116.684 43.3611 116.866 42.1715 117.683 41.6396Z" fill="white"/>
<path d="M177.793 41.9749C178.874 40.8911 181.193 41.0952 181.611 42.7109C181.712 45.1003 181.79 47.4898 181.871 49.8792C181.642 49.8818 181.18 49.8818 180.951 49.8843C180.938 47.6788 180.974 45.4709 180.938 43.2679C180.832 41.6901 177.954 41.6901 177.825 43.2654C177.76 45.4709 177.82 47.6788 177.8 49.8843C177.495 49.8818 177.193 49.8792 176.893 49.8792C176.893 47.0613 176.888 44.2459 176.893 41.4305C177.122 41.4279 177.578 41.4229 177.805 41.4204C177.803 41.559 177.795 41.8363 177.793 41.9749Z" fill="white"/>
<path d="M184.539 41.7024C185.404 40.9564 186.679 41.0547 187.67 41.468C188.444 41.8335 188.63 42.751 188.776 43.5096C188.555 43.5172 188.116 43.5323 187.894 43.5399C187.786 42.9904 187.68 42.3326 187.123 42.0553C186.17 41.5084 184.411 41.952 184.522 43.2803C184.507 44.2028 185.449 44.6136 186.13 44.9942C187.204 45.463 188.171 46.1814 188.877 47.119C189.391 48.5431 188.068 50.0907 186.594 49.9899C185.111 50.2319 183.614 49.0901 183.657 47.545C183.879 47.5425 184.323 47.54 184.542 47.5374C184.764 48.1928 184.953 49.0674 185.747 49.2413C186.825 49.6622 188.471 48.8708 188.171 47.5576C187.912 45.8462 185.837 45.6773 184.701 44.7447C183.576 44.165 183.569 42.4233 184.539 41.7024Z" fill="white"/>
<path d="M196.58 42.1361C197.155 41.5236 197.946 41.2413 198.761 41.1304C198.778 41.3245 198.808 41.7126 198.826 41.9067C197.924 42.0277 196.686 42.3755 196.656 43.4896C196.605 45.6169 196.653 47.7467 196.636 49.8741C196.323 49.8766 196.013 49.8816 195.703 49.8867C195.703 47.0511 195.703 44.218 195.703 41.3849C195.945 41.39 196.429 41.3975 196.671 41.4001C196.638 41.6446 196.608 41.889 196.58 42.1361Z" fill="white"/>
<path d="M207.897 42.8118C208.205 41.2794 210.183 40.8458 211.449 41.4281C212.281 41.7658 212.512 42.7236 212.641 43.5226C212.452 43.5251 212.074 43.5327 211.887 43.5352C211.716 42.9984 211.666 42.275 211.058 42.038C210.153 41.5793 208.689 41.8843 208.54 43.0412C208.376 44.6997 208.354 46.3885 208.55 48.047C208.759 49.2744 210.453 49.5769 211.28 48.7855C211.638 48.4704 211.658 47.9663 211.776 47.5378C212.069 47.5857 212.361 47.6361 212.656 47.689C212.487 48.3419 212.349 49.1056 211.726 49.4912C210.529 50.3129 208.482 49.8995 207.923 48.4931C207.587 46.6254 207.557 44.6821 207.897 42.8118Z" fill="white"/>
<path d="M256.574 41.9618C257.141 41.6064 257.756 41.2006 258.467 41.304C259.402 41.3191 260.486 41.9744 260.466 43.0129C260.504 45.299 260.625 47.5826 260.693 49.8687C260.469 49.8712 260.017 49.8763 259.793 49.8813C259.765 47.6809 259.841 45.4779 259.758 43.2801C259.647 41.682 256.766 41.6972 256.642 43.2801C256.572 45.4754 256.637 47.6758 256.615 49.8737C256.416 49.8763 256.015 49.8838 255.813 49.8863C255.813 47.0608 255.811 44.2379 255.816 41.4123C256.017 41.4199 256.423 41.435 256.625 41.4401C256.612 41.5711 256.587 41.8333 256.574 41.9618Z" fill="white"/>
<path d="M276.084 41.7177C276.946 41.0951 278.123 41.1884 279.059 41.5816C279.858 41.9521 280.067 42.8872 280.178 43.6761C280.044 43.6686 279.779 43.6509 279.646 43.6434C279.5 43.0258 279.432 42.1689 278.693 41.9773C277.755 41.5665 276.16 42.0504 276.281 43.2653C276.422 44.7902 278.292 44.8734 279.308 45.6144C280.886 46.3706 280.906 49.0196 279.28 49.7329C278.144 50.1791 276.598 50.1488 275.767 49.1381C275.353 48.7121 275.273 48.1072 275.172 47.5527C275.396 47.5502 275.845 47.5401 276.069 47.5351C276.162 48.2988 276.553 49.1079 277.38 49.2742C278.436 49.622 279.979 48.8256 279.704 47.5754C279.663 46.8142 278.96 46.3706 278.365 46.0379C277.352 45.4909 276.12 45.1784 275.429 44.1878C275.076 43.3611 275.222 42.1789 276.084 41.7177Z" fill="white"/>
<path d="M288.225 41.9243C289.226 41.0295 290.7 41.2185 291.703 42.0049C292.586 41.1404 293.962 40.9287 295.063 41.4958C295.666 41.7428 296.021 42.3931 295.986 43.0358C296.013 45.337 296.162 47.6332 296.195 49.937C296.006 49.9067 295.633 49.8462 295.446 49.8185C295.368 47.6484 295.477 45.4757 295.401 43.308C295.298 41.7201 292.432 41.642 292.278 43.2526C292.202 45.4605 292.271 47.6736 292.248 49.8815C292.021 49.8815 291.572 49.8815 291.345 49.8815C291.323 47.6761 291.386 45.4706 291.318 43.2677C291.174 41.6949 288.318 41.6722 288.197 43.2778C288.127 45.4731 288.192 47.6736 288.167 49.8689C287.865 49.8715 287.565 49.8765 287.267 49.879C287.265 47.0661 287.265 44.2532 287.27 41.4403C287.474 41.4353 287.885 41.4227 288.091 41.4176C288.124 41.5437 288.192 41.7957 288.225 41.9243Z" fill="white"/>
<path d="M306.513 41.9215C307.564 40.878 309.752 41.1527 310.215 42.6499C310.336 45.057 310.374 47.4742 310.495 49.8863C310.268 49.8838 309.812 49.8788 309.583 49.8788C309.557 47.6985 309.62 45.5183 309.555 43.3405C309.515 41.6694 306.48 41.677 306.43 43.338C306.364 45.5157 306.427 47.6985 306.402 49.8788C306.203 49.8788 305.799 49.8813 305.598 49.8838C305.61 47.0381 305.57 44.1925 305.618 41.3493C306.019 41.3846 306.397 41.4804 306.513 41.9215Z" fill="white"/>
<path d="M95.2496 41.884C96.0839 41.2136 97.2584 41.3119 98.2036 41.6673C99.0429 41.9823 99.3681 42.9552 99.3303 43.7845C99.2723 45.816 99.1841 47.8476 99.0984 49.8791C98.869 49.8766 98.4128 49.8716 98.1835 49.869C98.1935 49.7354 98.2137 49.4657 98.2238 49.3296C97.208 50.6554 94.9143 50.3504 94.3195 48.7802C94.007 47.6132 94.2943 45.995 95.5445 45.4934C96.4014 45.0523 97.3844 45.1456 98.317 45.1355C98.2213 44.16 98.6775 42.8695 97.7121 42.2066C96.6333 41.4656 95.0908 42.373 95.174 43.6761C94.9824 43.6635 94.6018 43.6383 94.4102 43.6257C94.5766 43.0057 94.6724 42.2722 95.2496 41.884ZM95.61 46.0252C94.9295 46.6024 95.0656 47.6258 95.3302 48.3744C95.8797 49.4758 97.5533 49.2112 98.2061 48.3491C98.4229 47.4367 98.2818 46.484 98.3145 45.5564C97.4122 45.6018 96.3561 45.3875 95.61 46.0252Z" fill="white"/>
<path d="M129.377 41.7453C130.73 40.9388 133.158 41.4681 133.256 43.308C133.304 45.4984 133.155 47.6938 133.178 49.8866C132.943 49.8816 132.475 49.8765 132.238 49.8715C132.253 49.7379 132.286 49.4682 132.301 49.3346C131.797 49.6824 131.298 50.1235 130.657 50.1689C129.518 50.3176 128.283 49.4858 128.147 48.3163C128.102 47.3358 128.286 46.1386 129.238 45.6244C130.138 45.0497 131.237 45.1354 132.255 45.1354C132.223 44.3667 132.356 43.5752 132.17 42.8241C131.749 41.7201 130.057 41.6798 129.435 42.6099C129.233 42.9275 129.18 43.3081 129.072 43.666C128.83 43.6609 128.591 43.6584 128.351 43.6559C128.515 42.9501 128.669 42.1133 129.377 41.7453ZM129.243 46.4007C128.79 47.351 129.105 49.0901 130.413 49.0826C131.109 49.1985 131.668 48.7221 132.24 48.4197C132.276 47.4644 132.253 46.5091 132.255 45.5564C131.237 45.5967 129.846 45.3396 129.243 46.4007Z" fill="white"/>
<path d="M141.15 41.9169C142.347 41.0222 144.535 41.1608 145.193 42.6504C145.382 43.646 145.243 44.6744 145.278 45.6826C143.874 45.6826 142.471 45.6801 141.069 45.6851C141.165 46.7639 140.933 48.0216 141.646 48.9341C142.231 49.4483 143.154 49.4457 143.827 49.108C144.368 48.8181 144.494 48.1628 144.714 47.6436C144.873 47.6511 145.19 47.6688 145.349 47.6789C145.183 48.3291 145.054 49.0954 144.437 49.481C143.257 50.3481 141.248 50.149 140.555 48.7627C140.119 47.3058 140.27 45.7607 140.346 44.2661C140.429 43.4469 140.547 42.532 141.15 41.9169ZM141.412 42.7059C141.051 43.462 141.12 44.324 141.062 45.1382C142.171 45.1432 143.282 45.1407 144.394 45.1382C144.351 44.382 144.381 43.6082 144.164 42.8773C143.781 41.7632 141.908 41.6195 141.412 42.7059Z" fill="white"/>
<path d="M171.083 41.5489C172 41.2086 173.092 41.3321 173.901 41.8841C174.811 42.8671 174.672 44.3063 174.743 45.5439C174.685 46.7059 174.801 47.9661 174.236 49.0273C173.278 50.532 170.634 50.2926 169.921 48.6719C169.614 47.2453 169.598 45.7607 169.689 44.3063C169.74 43.2729 169.908 41.8942 171.083 41.5489ZM171.567 42.0731C171.035 42.1992 170.66 42.7033 170.629 43.2402C170.476 44.7625 170.471 46.3001 170.602 47.825C170.622 48.2661 170.831 48.6744 171.111 49.0096C171.91 49.6297 173.478 49.3902 173.682 48.2686C173.964 46.5647 173.924 44.8029 173.719 43.094C173.546 42.116 172.419 41.7354 171.567 42.0731Z" fill="white"/>
<path d="M200.531 41.4428C200.828 41.4352 201.126 41.4302 201.426 41.4276C201.446 43.5625 201.408 45.6974 201.438 47.8323C201.347 49.1455 203.182 49.574 204.077 48.9136C204.629 48.5859 204.596 47.8726 204.611 47.3156C204.606 45.3546 204.604 43.3962 204.609 41.4352C204.808 41.4302 205.204 41.4201 205.403 41.415C205.403 44.238 205.403 47.061 205.403 49.884C205.141 49.8815 204.614 49.8789 204.352 49.8764C204.364 49.7353 204.39 49.4555 204.4 49.3169C203.291 50.4183 200.899 50.2041 200.531 48.5179C200.513 46.1612 200.533 43.802 200.531 41.4428Z" fill="white"/>
<path d="M219.609 41.4229C219.841 41.4229 220.305 41.4229 220.536 41.4229C220.438 44.2433 220.425 47.0638 220.398 49.8842C220.199 49.8817 219.803 49.8817 219.604 49.8792C219.604 47.0612 219.596 44.2408 219.609 41.4229Z" fill="white"/>
<path d="M224.002 41.6043C225.219 41.0699 227.173 41.3875 227.538 42.8519C227.81 44.7373 227.901 46.7058 227.468 48.5735C226.852 50.5445 223.626 50.4689 222.92 48.6138C222.588 46.8696 222.588 45.0649 222.817 43.3107C222.9 42.5948 223.263 41.8311 224.002 41.6043ZM224.534 42.121C224.087 42.3201 223.795 42.7839 223.755 43.2653C223.631 44.4424 223.677 45.6321 223.677 46.8167C223.699 47.5174 223.669 48.2962 224.138 48.876C224.874 49.7077 226.593 49.3876 226.754 48.2005C226.931 46.5319 226.953 44.8305 226.757 43.1619C226.598 42.1537 225.403 41.6799 224.534 42.121Z" fill="white"/>
<path d="M229.943 41.355C230.357 41.4054 230.861 41.3953 230.916 41.9297C231.967 40.8988 234.079 41.1357 234.629 42.58C234.76 45.0072 234.803 47.4471 234.914 49.8819C234.687 49.8819 234.233 49.8819 234.006 49.8819C233.994 47.7521 234.026 45.6248 233.994 43.4949C234.092 42.1843 232.287 41.7129 231.385 42.3834C230.883 42.6505 230.82 43.253 230.828 43.7596C230.82 45.7987 230.83 47.8353 230.825 49.8744C230.601 49.8769 230.152 49.8819 229.928 49.8844C229.933 47.0413 229.903 44.1981 229.943 41.355Z" fill="white"/>
<path d="M261.938 41.3948C262.162 41.3923 262.61 41.3873 262.835 41.3848C263.47 43.7969 264.098 46.2116 264.735 48.6237C265.375 46.2141 265.996 43.7994 266.638 41.3898C266.895 41.3898 267.41 41.3898 267.667 41.3898C266.86 44.2229 266.053 47.0559 265.237 49.8865C264.939 49.8814 264.642 49.8789 264.35 49.8764C263.543 47.0484 262.721 44.2279 261.938 41.3948Z" fill="white"/>
<path d="M268.929 43.0759C269.237 40.8931 272.912 40.7696 273.587 42.7532C273.739 43.7186 273.713 44.7041 273.779 45.6795C272.372 45.6846 270.966 45.677 269.562 45.6846C269.66 46.781 269.403 48.0766 270.185 48.9814C270.774 49.4326 271.654 49.4452 272.292 49.0772C272.778 48.7596 272.844 48.1396 272.987 47.6279C273.224 47.6481 273.466 47.6708 273.708 47.696C273.696 49.6847 271.112 50.6828 269.638 49.5107C268.788 48.8806 268.841 47.7363 268.766 46.7961C268.783 45.556 268.738 44.3033 268.929 43.0759ZM270.119 42.355C269.517 43.1464 269.613 44.1975 269.555 45.1351C270.664 45.1427 271.775 45.1402 272.887 45.1402C272.834 44.3865 272.869 43.6152 272.665 42.8843C272.297 41.8912 270.863 41.687 270.119 42.355Z" fill="white"/>
<path d="M298.561 43.0584C298.879 40.9336 302.377 40.7849 303.174 42.63C303.421 43.623 303.458 44.659 303.537 45.6773C302.125 45.6874 300.719 45.6773 299.31 45.6848C299.368 46.6199 299.252 47.613 299.61 48.5002C299.96 49.4328 301.261 49.5538 301.994 49.0195C302.405 48.6742 302.475 48.1121 302.639 47.6357C302.818 47.6534 303.174 47.6886 303.353 47.7063C303.171 48.4019 302.99 49.2236 302.284 49.5765C301.077 50.3906 299.037 50.0453 298.594 48.528C298.274 46.7283 298.342 44.8657 298.561 43.0584ZM299.874 42.3477C299.267 43.1416 299.355 44.1952 299.302 45.1379C300.411 45.1429 301.523 45.1404 302.634 45.1404C302.584 44.3842 302.617 43.6104 302.405 42.8795C302.032 41.8965 300.618 41.6873 299.874 42.3477Z" fill="white"/>
<path d="M151.578 45.0192C152.778 45.0318 153.978 44.994 155.177 45.0318C155.477 44.8907 155.81 45.541 155.351 45.4931C154.106 45.6594 152.833 45.5183 151.578 45.5636C151.578 45.4275 151.578 45.1553 151.578 45.0192Z" fill="white"/>
<path d="M241.438 45.5589C241.44 45.4253 241.445 45.1556 241.448 45.0195C242.751 45.0195 244.054 45.0195 245.359 45.0195C245.359 45.1556 245.359 45.4279 245.359 45.564C244.051 45.5614 242.743 45.5665 241.438 45.5589Z" fill="white"/>
</svg>
