<svg width="33" height="34" viewBox="0 0 33 34" fill="none" xmlns="http://www.w3.org/2000/svg">
<path fill-rule="evenodd" clip-rule="evenodd" d="M30.6985 9.30896C30.9093 8.61861 30.6985 8.11133 29.6954 8.11133H26.3784C25.535 8.11133 25.1462 8.54954 24.9353 9.03275C24.9353 9.03275 23.2484 13.0713 20.8588 15.6945C20.0858 16.4539 19.7343 16.6956 19.3126 16.6956C19.1018 16.6956 18.7854 16.4539 18.7854 15.7636V9.30896C18.7854 8.48054 18.5518 8.11133 17.8489 8.11133H12.6364C12.1094 8.11133 11.7924 8.49581 11.7924 8.86021C11.7924 9.64553 12.9871 9.82665 13.1103 12.0358V16.8336C13.1103 17.8855 12.9169 18.0763 12.4952 18.0763C11.3707 18.0763 8.63537 14.0197 7.01307 9.37796C6.69514 8.47576 6.37626 8.11133 5.52852 8.11133H2.2115C1.26377 8.11133 1.07422 8.54954 1.07422 9.03275C1.07422 9.89571 2.19876 14.1758 6.31029 19.8366C9.05128 23.7024 12.9132 25.798 16.4273 25.798C18.5358 25.798 18.7967 25.3326 18.7967 24.5309V21.609C18.7967 20.6782 18.9964 20.4924 19.6641 20.4924C20.156 20.4924 20.9994 20.7341 22.9673 22.598C25.2164 24.8071 25.5872 25.798 26.8522 25.798H30.1693C31.1169 25.798 31.5908 25.3326 31.3174 24.414C31.0183 23.4986 29.9446 22.1705 28.5198 20.596C27.7466 19.6985 26.5869 18.7321 26.2354 18.2487C25.7435 17.6275 25.8841 17.3514 26.2354 16.7992C26.2354 16.7992 30.2768 11.2073 30.6985 9.30896Z" fill="#1698E1"/>
</svg>
