<svg width="34" height="34" viewBox="0 0 34 34" fill="none" xmlns="http://www.w3.org/2000/svg">
<path fill-rule="evenodd" clip-rule="evenodd" d="M17.2346 6.49707C18.0834 6.49855 26.6265 6.52817 28.8392 7.12047C30.1256 7.46189 31.137 8.47133 31.4821 9.76281C32.0816 12.0002 32.1056 16.5633 32.1066 16.9248V16.9705C32.1056 17.3331 32.0816 21.9099 31.4821 24.1472C31.137 25.4387 30.1256 26.4481 28.8392 26.7896C26.5566 27.4006 17.5375 27.4128 17.1776 27.413H17.1555C16.7956 27.4128 7.77495 27.4006 5.49092 26.7896C4.20608 26.4481 3.19314 25.4387 2.84952 24.1472C2.25144 21.9099 2.22752 17.3331 2.22656 16.9705V16.9248C2.22752 16.5633 2.25144 12.0002 2.84952 9.76281C3.19314 8.47133 4.20608 7.46189 5.49092 7.12047C7.70503 6.52817 16.2496 6.49855 17.0985 6.49707H17.2346ZM14.1098 12.5387V21.3713L21.9205 16.9476L14.1098 12.5387Z" fill="#1698E1"/>
</svg>
