<svg width="33" height="34" viewBox="0 0 33 34" fill="none" xmlns="http://www.w3.org/2000/svg">
<path d="M24.0883 10.8737V10.8745C24.0883 11.6298 23.4759 12.2415 22.7213 12.2415C21.9667 12.2415 21.3542 11.6291 21.3542 10.8745C21.3542 10.1192 21.9667 9.50744 22.7213 9.50744C23.4759 9.5082 24.0876 10.1192 24.0883 10.8737ZM16.6376 20.7546C14.5395 20.7546 12.8389 19.054 12.8389 16.9559C12.8389 14.8579 14.5395 13.1572 16.6376 13.1572C18.7356 13.1572 20.4363 14.8579 20.4363 16.9559C20.4363 19.0532 18.7364 20.7539 16.6391 20.7539H16.6383L16.6376 20.7546ZM16.6376 11.1047C13.4057 11.1047 10.7864 13.7249 10.7864 16.9559C10.7864 20.187 13.4065 22.8071 16.6376 22.8071C19.8694 22.8071 22.4888 20.187 22.4888 16.9559C22.4888 16.9559 22.4888 16.9559 22.4888 16.9552C22.4888 13.7241 19.8694 11.104 16.6376 11.104C16.6376 11.104 16.6376 11.104 16.6368 11.104L16.6376 11.1047ZM16.6376 7.61226C19.6794 7.61226 20.0419 7.62746 21.2433 7.67989C22.0055 7.68901 22.7304 7.83339 23.4014 8.08872L23.3581 8.07428C24.3566 8.46334 25.1317 9.23844 25.5124 10.2111L25.5215 10.2369C25.7616 10.8646 25.9045 11.5903 25.9136 12.3479V12.3517C25.9676 13.5539 25.9797 13.9148 25.9797 16.9574C25.9797 20.0001 25.9653 20.3618 25.9098 21.5632C25.8954 22.3261 25.7502 23.051 25.4957 23.722L25.5101 23.678C25.314 24.1916 25.0238 24.6293 24.6567 24.9895L24.656 24.9903C24.2965 25.3581 23.8588 25.6484 23.3702 25.833L23.3459 25.8414C22.716 26.0815 21.988 26.2244 21.2273 26.2335H21.2235C20.0138 26.2874 19.6574 26.2996 16.6095 26.2996C13.56 26.2996 13.2044 26.2852 11.9954 26.2297C11.2294 26.2152 10.5014 26.0701 9.82739 25.8155L9.87223 25.83C9.35854 25.637 8.92084 25.3459 8.56369 24.9774L8.56293 24.9766C8.19134 24.6195 7.89954 24.181 7.7164 23.6901L7.70881 23.6666C7.46944 23.0374 7.3243 22.3101 7.30986 21.5502V21.5442C7.26731 20.3473 7.25211 19.978 7.25211 16.9445C7.25211 13.9095 7.26731 13.5394 7.30986 12.3282C7.3243 11.563 7.46868 10.8357 7.72324 10.1625L7.70881 10.2073C7.8965 9.69133 8.18906 9.25211 8.56217 8.89724L8.56369 8.89572C8.91932 8.52186 9.35778 8.23082 9.84943 8.05072L9.87299 8.04312C10.4984 7.80148 11.221 7.65634 11.9764 7.64342H11.9817C13.1922 7.60086 13.5486 7.58643 16.5958 7.58643L16.6376 7.61226ZM16.6376 5.56055C13.5418 5.56055 13.1557 5.57498 11.9399 5.62894C10.9406 5.65021 9.99305 5.84323 9.11613 6.17834L9.17388 6.15934C8.38359 6.46102 7.71033 6.9086 7.1556 7.47244L7.15484 7.4732C6.58872 8.02792 6.1419 8.70195 5.85314 9.45425L5.84022 9.49224C5.52411 10.3114 5.3311 11.2598 5.31058 12.2491V12.2583C5.25359 13.4741 5.24219 13.8601 5.24219 16.9559C5.24219 20.0517 5.25663 20.4378 5.31058 21.6536C5.33186 22.6529 5.52487 23.6004 5.85998 24.4774L5.84098 24.4196C6.44586 25.9554 7.63813 27.1476 9.13437 27.7388L9.17388 27.7525C9.99305 28.0679 10.9414 28.2609 11.9308 28.2822H11.9399C13.1557 28.3391 13.5418 28.3505 16.6376 28.3505C19.7334 28.3505 20.1194 28.3361 21.3352 28.2822C22.3345 28.2601 23.2821 28.0679 24.159 27.7328L24.1013 27.7525C25.637 27.1476 26.8293 25.9554 27.4205 24.4591L27.4342 24.4196C27.7503 23.6004 27.9425 22.6521 27.9638 21.6627V21.6536C28.0208 20.4378 28.0322 20.0517 28.0322 16.9559C28.0322 13.8601 28.0177 13.4741 27.9638 12.2583C27.9418 11.259 27.7495 10.3114 27.4144 9.43449L27.4342 9.49224C27.1317 8.70195 26.6849 8.02868 26.1203 7.47396L26.1195 7.4732C25.5648 6.90708 24.8908 6.46026 24.1385 6.1715L24.1005 6.15858C23.2813 5.84247 22.333 5.64945 21.3436 5.62894H21.3345C20.1186 5.57195 19.7326 5.56055 16.6368 5.56055H16.6376Z" fill="#1698E1"/>
</svg>
